<svg id="visual" viewBox="0 0 900 600" width="900" height="600" xmlns="http://www.w3.org/2000/svg" xmlns:xlink="http://www.w3.org/1999/xlink" version="1.1"><g stroke-width="1" stroke-linejoin="bevel"><path d="M473.6 275.7L419.4 265.7L420.4 326.3Z" fill="#d92b76" stroke="#d92b76"></path><path d="M420.4 326.3L488.6 344.3L473.6 275.7Z" fill="#e92f80" stroke="#e92f80"></path><path d="M340.2 272.7L356.2 346.3L420.4 326.3Z" fill="#d42973" stroke="#d42973"></path><path d="M420.4 326.3L479.6 389L488.6 344.3Z" fill="#e42e7d" stroke="#e42e7d"></path><path d="M417.4 406L479.6 389L420.4 326.3Z" fill="#e92f80" stroke="#e92f80"></path><path d="M419.4 265.7L340.2 272.7L420.4 326.3Z" fill="#ee3183" stroke="#ee3183"></path><path d="M473.6 275.7L421.4 193L419.4 265.7Z" fill="#d92b76" stroke="#d92b76"></path><path d="M419.4 265.7L356.2 206L340.2 272.7Z" fill="#ca266d" stroke="#ca266d"></path><path d="M545.8 344.3L546.8 265.7L488.6 344.3Z" fill="#d92b76" stroke="#d92b76"></path><path d="M488.6 344.3L546.8 265.7L473.6 275.7Z" fill="#ee3183" stroke="#ee3183"></path><path d="M473.6 275.7L494.6 197L421.4 193Z" fill="#cf2870" stroke="#cf2870"></path><path d="M546.8 265.7L494.6 197L473.6 275.7Z" fill="#cf2870" stroke="#cf2870"></path><path d="M356.2 346.3L417.4 406L420.4 326.3Z" fill="#cf2870" stroke="#cf2870"></path><path d="M479.6 389L545.8 344.3L488.6 344.3Z" fill="#ee3183" stroke="#ee3183"></path><path d="M421.4 193L356.2 206L419.4 265.7Z" fill="#cf2870" stroke="#cf2870"></path><path d="M286.9 345.3L355.2 394L356.2 346.3Z" fill="#c4256a" stroke="#c4256a"></path><path d="M356.2 346.3L355.2 394L417.4 406Z" fill="#ee3183" stroke="#ee3183"></path><path d="M546.8 265.7L553.8 200L494.6 197Z" fill="#ba2264" stroke="#ba2264"></path><path d="M491.6 128.3L408.4 140.3L421.4 193Z" fill="#bf2367" stroke="#bf2367"></path><path d="M612.1 191L553.8 200L546.8 265.7Z" fill="#ba2264" stroke="#ba2264"></path><path d="M551.8 473.7L565.8 395L479.6 389Z" fill="#e42e7d" stroke="#e42e7d"></path><path d="M479.6 389L565.8 395L545.8 344.3Z" fill="#ba2264" stroke="#ba2264"></path><path d="M635.1 339.3L635.1 266.7L546.8 265.7Z" fill="#ba2264" stroke="#ba2264"></path><path d="M491.6 128.3L421.4 193L494.6 197Z" fill="#ba2264" stroke="#ba2264"></path><path d="M421.4 193L408.4 140.3L356.2 206Z" fill="#d92b76" stroke="#d92b76"></path><path d="M273.9 257.7L286.9 345.3L340.2 272.7Z" fill="#e92f80" stroke="#e92f80"></path><path d="M340.2 272.7L286.9 345.3L356.2 346.3Z" fill="#e42e7d" stroke="#e42e7d"></path><path d="M355.2 394L412.4 457.7L417.4 406Z" fill="#ba2264" stroke="#ba2264"></path><path d="M417.4 406L475.6 461.7L479.6 389Z" fill="#ca266d" stroke="#ca266d"></path><path d="M346.2 474.7L412.4 457.7L355.2 394Z" fill="#e92f80" stroke="#e92f80"></path><path d="M412.4 457.7L475.6 461.7L417.4 406Z" fill="#ee3183" stroke="#ee3183"></path><path d="M278.9 204L340.2 272.7L356.2 206Z" fill="#d42973" stroke="#d42973"></path><path d="M278.9 204L273.9 257.7L340.2 272.7Z" fill="#ca266d" stroke="#ca266d"></path><path d="M553.8 200L491.6 128.3L494.6 197Z" fill="#d42973" stroke="#d42973"></path><path d="M337.2 134.3L278.9 204L356.2 206Z" fill="#e42e7d" stroke="#e42e7d"></path><path d="M408.4 140.3L337.2 134.3L356.2 206Z" fill="#e42e7d" stroke="#e42e7d"></path><path d="M338.2 61.7L337.2 134.3L408.4 140.3Z" fill="#bf2367" stroke="#bf2367"></path><path d="M635.1 339.3L546.8 265.7L545.8 344.3Z" fill="#de2c79" stroke="#de2c79"></path><path d="M553.8 200L562.8 130.3L491.6 128.3Z" fill="#e92f80" stroke="#e92f80"></path><path d="M565.8 395L635.1 339.3L545.8 344.3Z" fill="#cf2870" stroke="#cf2870"></path><path d="M635.1 266.7L612.1 191L546.8 265.7Z" fill="#e92f80" stroke="#e92f80"></path><path d="M219.7 329.3L267.9 400L286.9 345.3Z" fill="#e42e7d" stroke="#e42e7d"></path><path d="M286.9 345.3L267.9 400L355.2 394Z" fill="#d42973" stroke="#d42973"></path><path d="M286.9 453.7L346.2 474.7L355.2 394Z" fill="#c4256a" stroke="#c4256a"></path><path d="M412.4 457.7L422.4 545.3L475.6 461.7Z" fill="#d42973" stroke="#d42973"></path><path d="M612.1 191L562.8 130.3L553.8 200Z" fill="#d42973" stroke="#d42973"></path><path d="M616.1 461.7L624.1 394L565.8 395Z" fill="#cf2870" stroke="#cf2870"></path><path d="M565.8 395L624.1 394L635.1 339.3Z" fill="#ba2264" stroke="#ba2264"></path><path d="M475.6 461.7L551.8 473.7L479.6 389Z" fill="#de2c79" stroke="#de2c79"></path><path d="M543.8 537.3L551.8 473.7L475.6 461.7Z" fill="#e42e7d" stroke="#e42e7d"></path><path d="M267.9 400L286.9 453.7L355.2 394Z" fill="#e92f80" stroke="#e92f80"></path><path d="M470.6 66.7L425.4 73.7L491.6 128.3Z" fill="#d42973" stroke="#d42973"></path><path d="M491.6 128.3L425.4 73.7L408.4 140.3Z" fill="#e42e7d" stroke="#e42e7d"></path><path d="M275.9 62.7L280.9 139.3L337.2 134.3Z" fill="#e92f80" stroke="#e92f80"></path><path d="M337.2 134.3L280.9 139.3L278.9 204Z" fill="#bf2367" stroke="#bf2367"></path><path d="M204.7 271.7L219.7 329.3L273.9 257.7Z" fill="#ee3183" stroke="#ee3183"></path><path d="M220.7 207L273.9 257.7L278.9 204Z" fill="#ee3183" stroke="#ee3183"></path><path d="M273.9 257.7L219.7 329.3L286.9 345.3Z" fill="#ee3183" stroke="#ee3183"></path><path d="M267.9 400L220.7 396L286.9 453.7Z" fill="#cf2870" stroke="#cf2870"></path><path d="M553.8 63.7L470.6 66.7L491.6 128.3Z" fill="#de2c79" stroke="#de2c79"></path><path d="M612.1 191L620.1 144.3L562.8 130.3Z" fill="#ba2264" stroke="#ba2264"></path><path d="M562.8 130.3L553.8 63.7L491.6 128.3Z" fill="#c4256a" stroke="#c4256a"></path><path d="M687.3 199L620.1 144.3L612.1 191Z" fill="#d92b76" stroke="#d92b76"></path><path d="M280.9 139.3L220.7 207L278.9 204Z" fill="#ca266d" stroke="#ca266d"></path><path d="M220.7 207L204.7 271.7L273.9 257.7Z" fill="#e42e7d" stroke="#e42e7d"></path><path d="M551.8 473.7L616.1 461.7L565.8 395Z" fill="#ba2264" stroke="#ba2264"></path><path d="M695.3 344.3L683.3 259.7L635.1 339.3Z" fill="#ca266d" stroke="#ca266d"></path><path d="M148.5 340.3L220.7 396L219.7 329.3Z" fill="#ba2264" stroke="#ba2264"></path><path d="M219.7 329.3L220.7 396L267.9 400Z" fill="#d92b76" stroke="#d92b76"></path><path d="M635.1 339.3L683.3 259.7L635.1 266.7Z" fill="#d92b76" stroke="#d92b76"></path><path d="M635.1 266.7L687.3 199L612.1 191Z" fill="#e42e7d" stroke="#e42e7d"></path><path d="M695.3 344.3L635.1 339.3L683.3 402Z" fill="#d42973" stroke="#d42973"></path><path d="M353.2 544.3L422.4 545.3L346.2 474.7Z" fill="#ca266d" stroke="#ca266d"></path><path d="M346.2 474.7L422.4 545.3L412.4 457.7Z" fill="#d92b76" stroke="#d92b76"></path><path d="M551.8 473.7L612.1 539.3L616.1 461.7Z" fill="#ca266d" stroke="#ca266d"></path><path d="M422.4 545.3L484.6 546.3L475.6 461.7Z" fill="#ee3183" stroke="#ee3183"></path><path d="M419.4 0L338.2 61.7L425.4 73.7Z" fill="#d92b76" stroke="#d92b76"></path><path d="M425.4 73.7L338.2 61.7L408.4 140.3Z" fill="#d92b76" stroke="#d92b76"></path><path d="M280.9 139.3L213.7 129.3L220.7 207Z" fill="#e42e7d" stroke="#e42e7d"></path><path d="M613.1 58.7L553.8 63.7L562.8 130.3Z" fill="#ee3183" stroke="#ee3183"></path><path d="M470.6 66.7L419.4 0L425.4 73.7Z" fill="#d92b76" stroke="#d92b76"></path><path d="M683.3 402L635.1 339.3L624.1 394Z" fill="#e92f80" stroke="#e92f80"></path><path d="M484.6 546.3L543.8 537.3L475.6 461.7Z" fill="#ee3183" stroke="#ee3183"></path><path d="M747.5 193L687.3 199L683.3 259.7Z" fill="#e42e7d" stroke="#e42e7d"></path><path d="M683.3 259.7L687.3 199L635.1 266.7Z" fill="#d42973" stroke="#d42973"></path><path d="M620.1 144.3L613.1 58.7L562.8 130.3Z" fill="#cf2870" stroke="#cf2870"></path><path d="M616.1 461.7L683.3 402L624.1 394Z" fill="#cf2870" stroke="#cf2870"></path><path d="M703.3 469.7L683.3 402L616.1 461.7Z" fill="#ca266d" stroke="#ca266d"></path><path d="M289.9 533.3L353.2 544.3L346.2 474.7Z" fill="#d42973" stroke="#d42973"></path><path d="M422.4 545.3L480.6 600L484.6 546.3Z" fill="#e42e7d" stroke="#e42e7d"></path><path d="M289.9 533.3L346.2 474.7L286.9 453.7Z" fill="#ca266d" stroke="#ca266d"></path><path d="M200.7 478.7L289.9 533.3L286.9 453.7Z" fill="#ca266d" stroke="#ca266d"></path><path d="M275.9 62.7L213.7 129.3L280.9 139.3Z" fill="#de2c79" stroke="#de2c79"></path><path d="M135.5 266.7L148.5 340.3L204.7 271.7Z" fill="#c4256a" stroke="#c4256a"></path><path d="M338.2 61.7L275.9 62.7L337.2 134.3Z" fill="#cf2870" stroke="#cf2870"></path><path d="M687.3 199L678.3 133.3L620.1 144.3Z" fill="#ca266d" stroke="#ca266d"></path><path d="M678.3 133.3L613.1 58.7L620.1 144.3Z" fill="#cf2870" stroke="#cf2870"></path><path d="M481.6 0L419.4 0L470.6 66.7Z" fill="#cf2870" stroke="#cf2870"></path><path d="M481.6 0L470.6 66.7L553.8 63.7Z" fill="#bf2367" stroke="#bf2367"></path><path d="M338.2 61.7L282.9 0L275.9 62.7Z" fill="#ba2264" stroke="#ba2264"></path><path d="M204.7 271.7L148.5 340.3L219.7 329.3Z" fill="#d42973" stroke="#d42973"></path><path d="M220.7 396L200.7 478.7L286.9 453.7Z" fill="#e42e7d" stroke="#e42e7d"></path><path d="M135.5 266.7L204.7 271.7L126.5 207Z" fill="#e92f80" stroke="#e92f80"></path><path d="M541.8 600L612.1 539.3L543.8 537.3Z" fill="#e92f80" stroke="#e92f80"></path><path d="M543.8 537.3L612.1 539.3L551.8 473.7Z" fill="#ee3183" stroke="#ee3183"></path><path d="M564.8 0L481.6 0L553.8 63.7Z" fill="#d92b76" stroke="#d92b76"></path><path d="M150.5 401L200.7 478.7L220.7 396Z" fill="#ba2264" stroke="#ba2264"></path><path d="M344.2 600L409.4 600L353.2 544.3Z" fill="#bf2367" stroke="#bf2367"></path><path d="M353.2 544.3L409.4 600L422.4 545.3Z" fill="#ee3183" stroke="#ee3183"></path><path d="M484.6 546.3L541.8 600L543.8 537.3Z" fill="#ba2264" stroke="#ba2264"></path><path d="M409.4 600L480.6 600L422.4 545.3Z" fill="#ca266d" stroke="#ca266d"></path><path d="M126.5 207L204.7 271.7L220.7 207Z" fill="#c4256a" stroke="#c4256a"></path><path d="M755.5 398L695.3 344.3L683.3 402Z" fill="#e42e7d" stroke="#e42e7d"></path><path d="M755.5 398L750.5 323.3L695.3 344.3Z" fill="#bf2367" stroke="#bf2367"></path><path d="M695.3 344.3L750.5 323.3L683.3 259.7Z" fill="#d42973" stroke="#d42973"></path><path d="M687.3 199L747.5 193L678.3 133.3Z" fill="#bf2367" stroke="#bf2367"></path><path d="M81.2 389L150.5 401L148.5 340.3Z" fill="#e42e7d" stroke="#e42e7d"></path><path d="M148.5 340.3L150.5 401L220.7 396Z" fill="#ba2264" stroke="#ba2264"></path><path d="M419.4 0L344.2 0L338.2 61.7Z" fill="#d92b76" stroke="#d92b76"></path><path d="M698.3 534.3L703.3 469.7L616.1 461.7Z" fill="#d42973" stroke="#d42973"></path><path d="M289.9 533.3L344.2 600L353.2 544.3Z" fill="#ba2264" stroke="#ba2264"></path><path d="M269.9 600L344.2 600L289.9 533.3Z" fill="#d92b76" stroke="#d92b76"></path><path d="M613.1 58.7L564.8 0L553.8 63.7Z" fill="#d92b76" stroke="#d92b76"></path><path d="M634.1 0L564.8 0L613.1 58.7Z" fill="#e92f80" stroke="#e92f80"></path><path d="M480.6 600L541.8 600L484.6 546.3Z" fill="#ca266d" stroke="#ca266d"></path><path d="M612.1 539.3L698.3 534.3L616.1 461.7Z" fill="#de2c79" stroke="#de2c79"></path><path d="M773.5 267.7L747.5 193L683.3 259.7Z" fill="#e92f80" stroke="#e92f80"></path><path d="M678.3 133.3L695.3 61.7L613.1 58.7Z" fill="#ee3183" stroke="#ee3183"></path><path d="M133.5 136.3L126.5 207L220.7 207Z" fill="#ba2264" stroke="#ba2264"></path><path d="M81.2 458.7L148.5 466.7L150.5 401Z" fill="#e42e7d" stroke="#e42e7d"></path><path d="M133.5 136.3L220.7 207L213.7 129.3Z" fill="#c4256a" stroke="#c4256a"></path><path d="M703.3 469.7L755.5 398L683.3 402Z" fill="#d42973" stroke="#d42973"></path><path d="M750.5 323.3L773.5 267.7L683.3 259.7Z" fill="#e92f80" stroke="#e92f80"></path><path d="M148.5 466.7L200.7 523.3L200.7 478.7Z" fill="#bf2367" stroke="#bf2367"></path><path d="M200.7 478.7L200.7 523.3L289.9 533.3Z" fill="#de2c79" stroke="#de2c79"></path><path d="M835.8 334.3L773.5 267.7L750.5 323.3Z" fill="#ee3183" stroke="#ee3183"></path><path d="M344.2 0L282.9 0L338.2 61.7Z" fill="#d42973" stroke="#d42973"></path><path d="M275.9 62.7L194.7 66.7L213.7 129.3Z" fill="#d42973" stroke="#d42973"></path><path d="M197.7 0L194.7 66.7L275.9 62.7Z" fill="#ee3183" stroke="#ee3183"></path><path d="M150.5 401L148.5 466.7L200.7 478.7Z" fill="#ba2264" stroke="#ba2264"></path><path d="M81.2 389L148.5 340.3L62.2 333.3Z" fill="#bf2367" stroke="#bf2367"></path><path d="M771.5 123.3L695.3 61.7L678.3 133.3Z" fill="#c4256a" stroke="#c4256a"></path><path d="M194.7 66.7L133.5 136.3L213.7 129.3Z" fill="#e92f80" stroke="#e92f80"></path><path d="M541.8 600L613.1 600L612.1 539.3Z" fill="#c4256a" stroke="#c4256a"></path><path d="M703.3 469.7L748.5 476.7L755.5 398Z" fill="#de2c79" stroke="#de2c79"></path><path d="M215.7 600L289.9 533.3L200.7 523.3Z" fill="#e92f80" stroke="#e92f80"></path><path d="M215.7 600L269.9 600L289.9 533.3Z" fill="#bf2367" stroke="#bf2367"></path><path d="M694.3 600L698.3 534.3L612.1 539.3Z" fill="#ca266d" stroke="#ca266d"></path><path d="M695.3 61.7L634.1 0L613.1 58.7Z" fill="#d42973" stroke="#d42973"></path><path d="M698.3 534.3L748.5 476.7L703.3 469.7Z" fill="#ca266d" stroke="#ca266d"></path><path d="M755.5 398L835.8 334.3L750.5 323.3Z" fill="#d42973" stroke="#d42973"></path><path d="M747.5 193L771.5 123.3L678.3 133.3Z" fill="#d92b76" stroke="#d92b76"></path><path d="M695.3 61.7L689.3 0L634.1 0Z" fill="#d42973" stroke="#d42973"></path><path d="M829.8 190L771.5 123.3L747.5 193Z" fill="#ca266d" stroke="#ca266d"></path><path d="M62.2 333.3L135.5 266.7L60.2 270.7Z" fill="#bf2367" stroke="#bf2367"></path><path d="M62.2 333.3L148.5 340.3L135.5 266.7Z" fill="#ba2264" stroke="#ba2264"></path><path d="M127.5 533.3L200.7 523.3L148.5 466.7Z" fill="#bf2367" stroke="#bf2367"></path><path d="M149.5 600L215.7 600L200.7 523.3Z" fill="#e42e7d" stroke="#e42e7d"></path><path d="M60.2 270.7L135.5 266.7L126.5 207Z" fill="#cf2870" stroke="#cf2870"></path><path d="M56.2 201L60.2 270.7L126.5 207Z" fill="#d92b76" stroke="#d92b76"></path><path d="M194.7 66.7L125.5 52.7L133.5 136.3Z" fill="#ba2264" stroke="#ba2264"></path><path d="M74.2 130.3L56.2 201L126.5 207Z" fill="#d42973" stroke="#d42973"></path><path d="M282.9 0L197.7 0L275.9 62.7Z" fill="#d92b76" stroke="#d92b76"></path><path d="M757.5 0L689.3 0L695.3 61.7Z" fill="#bf2367" stroke="#bf2367"></path><path d="M81.2 458.7L127.5 533.3L148.5 466.7Z" fill="#ba2264" stroke="#ba2264"></path><path d="M81.2 458.7L150.5 401L81.2 389Z" fill="#cf2870" stroke="#cf2870"></path><path d="M694.3 600L758.5 531.3L698.3 534.3Z" fill="#d92b76" stroke="#d92b76"></path><path d="M698.3 534.3L758.5 531.3L748.5 476.7Z" fill="#e42e7d" stroke="#e42e7d"></path><path d="M831.8 404L835.8 334.3L755.5 398Z" fill="#ba2264" stroke="#ba2264"></path><path d="M613.1 600L694.3 600L612.1 539.3Z" fill="#e92f80" stroke="#e92f80"></path><path d="M831.8 404L755.5 398L832.8 455.7Z" fill="#cf2870" stroke="#cf2870"></path><path d="M773.5 267.7L829.8 190L747.5 193Z" fill="#e42e7d" stroke="#e42e7d"></path><path d="M0 395L81.2 458.7L81.2 389Z" fill="#bf2367" stroke="#bf2367"></path><path d="M74.2 130.3L126.5 207L133.5 136.3Z" fill="#d42973" stroke="#d42973"></path><path d="M60.2 270.7L0 341.3L62.2 333.3Z" fill="#de2c79" stroke="#de2c79"></path><path d="M824.8 73.7L773.5 75.7L771.5 123.3Z" fill="#bf2367" stroke="#bf2367"></path><path d="M771.5 123.3L773.5 75.7L695.3 61.7Z" fill="#de2c79" stroke="#de2c79"></path><path d="M197.7 0L125.5 52.7L194.7 66.7Z" fill="#cf2870" stroke="#cf2870"></path><path d="M843.8 265.7L829.8 190L773.5 267.7Z" fill="#cf2870" stroke="#cf2870"></path><path d="M835.8 334.3L843.8 265.7L773.5 267.7Z" fill="#ca266d" stroke="#ca266d"></path><path d="M72.2 78.7L74.2 130.3L133.5 136.3Z" fill="#bf2367" stroke="#bf2367"></path><path d="M832.8 455.7L755.5 398L748.5 476.7Z" fill="#ba2264" stroke="#ba2264"></path><path d="M900 331.3L900 269.7L843.8 265.7Z" fill="#e92f80" stroke="#e92f80"></path><path d="M824.8 73.7L820.8 132.3L900 124.3Z" fill="#d42973" stroke="#d42973"></path><path d="M829.8 190L820.8 132.3L771.5 123.3Z" fill="#bf2367" stroke="#bf2367"></path><path d="M70.2 600L149.5 600L127.5 533.3Z" fill="#d92b76" stroke="#d92b76"></path><path d="M127.5 533.3L149.5 600L200.7 523.3Z" fill="#d92b76" stroke="#d92b76"></path><path d="M758.5 531.3L832.8 455.7L748.5 476.7Z" fill="#de2c79" stroke="#de2c79"></path><path d="M900 331.3L843.8 265.7L835.8 334.3Z" fill="#d92b76" stroke="#d92b76"></path><path d="M843.8 531.3L832.8 455.7L758.5 531.3Z" fill="#d92b76" stroke="#d92b76"></path><path d="M77.2 0L72.2 78.7L125.5 52.7Z" fill="#ba2264" stroke="#ba2264"></path><path d="M125.5 52.7L72.2 78.7L133.5 136.3Z" fill="#bf2367" stroke="#bf2367"></path><path d="M0 204L0 258.7L56.2 201Z" fill="#de2c79" stroke="#de2c79"></path><path d="M817.8 0L757.5 0L773.5 75.7Z" fill="#c4256a" stroke="#c4256a"></path><path d="M773.5 75.7L757.5 0L695.3 61.7Z" fill="#ca266d" stroke="#ca266d"></path><path d="M197.7 0L124.5 0L125.5 52.7Z" fill="#e92f80" stroke="#e92f80"></path><path d="M820.8 132.3L824.8 73.7L771.5 123.3Z" fill="#cf2870" stroke="#cf2870"></path><path d="M900 124.3L820.8 132.3L829.8 190Z" fill="#d42973" stroke="#d42973"></path><path d="M0 204L56.2 201L0 137.3Z" fill="#ca266d" stroke="#ca266d"></path><path d="M56.2 201L0 258.7L60.2 270.7Z" fill="#c4256a" stroke="#c4256a"></path><path d="M62.2 333.3L0 395L81.2 389Z" fill="#e42e7d" stroke="#e42e7d"></path><path d="M0 258.7L0 341.3L60.2 270.7Z" fill="#ca266d" stroke="#ca266d"></path><path d="M81.2 458.7L67.2 541.3L127.5 533.3Z" fill="#e42e7d" stroke="#e42e7d"></path><path d="M0 522.3L67.2 541.3L81.2 458.7Z" fill="#ca266d" stroke="#ca266d"></path><path d="M694.3 600L772.5 600L758.5 531.3Z" fill="#bf2367" stroke="#bf2367"></path><path d="M0 137.3L56.2 201L74.2 130.3Z" fill="#de2c79" stroke="#de2c79"></path><path d="M0 341.3L0 395L62.2 333.3Z" fill="#de2c79" stroke="#de2c79"></path><path d="M900 331.3L835.8 334.3L900 393Z" fill="#d42973" stroke="#d42973"></path><path d="M843.8 265.7L900 194L829.8 190Z" fill="#bf2367" stroke="#bf2367"></path><path d="M900 393L831.8 404L900 463.7Z" fill="#cf2870" stroke="#cf2870"></path><path d="M900 393L835.8 334.3L831.8 404Z" fill="#ca266d" stroke="#ca266d"></path><path d="M772.5 600L843.8 531.3L758.5 531.3Z" fill="#cf2870" stroke="#cf2870"></path><path d="M900 463.7L831.8 404L832.8 455.7Z" fill="#d92b76" stroke="#d92b76"></path><path d="M900 269.7L900 194L843.8 265.7Z" fill="#e42e7d" stroke="#e42e7d"></path><path d="M72.2 78.7L0 137.3L74.2 130.3Z" fill="#ca266d" stroke="#ca266d"></path><path d="M0 52.7L0 137.3L72.2 78.7Z" fill="#bf2367" stroke="#bf2367"></path><path d="M124.5 0L77.2 0L125.5 52.7Z" fill="#ca266d" stroke="#ca266d"></path><path d="M0 395L0 463.7L81.2 458.7Z" fill="#ba2264" stroke="#ba2264"></path><path d="M900 65.7L817.8 0L824.8 73.7Z" fill="#c4256a" stroke="#c4256a"></path><path d="M824.8 73.7L817.8 0L773.5 75.7Z" fill="#de2c79" stroke="#de2c79"></path><path d="M0 600L70.2 600L67.2 541.3Z" fill="#d42973" stroke="#d42973"></path><path d="M67.2 541.3L70.2 600L127.5 533.3Z" fill="#ee3183" stroke="#ee3183"></path><path d="M843.8 531.3L900 463.7L832.8 455.7Z" fill="#ee3183" stroke="#ee3183"></path><path d="M900 194L900 124.3L829.8 190Z" fill="#e42e7d" stroke="#e42e7d"></path><path d="M772.5 600L830.8 600L843.8 531.3Z" fill="#bf2367" stroke="#bf2367"></path><path d="M843.8 531.3L900 544.3L900 463.7Z" fill="#cf2870" stroke="#cf2870"></path><path d="M0 463.7L0 522.3L81.2 458.7Z" fill="#e42e7d" stroke="#e42e7d"></path><path d="M77.2 0L0 52.7L72.2 78.7Z" fill="#e42e7d" stroke="#e42e7d"></path><path d="M900 124.3L900 65.7L824.8 73.7Z" fill="#c4256a" stroke="#c4256a"></path><path d="M830.8 600L900 544.3L843.8 531.3Z" fill="#ee3183" stroke="#ee3183"></path><path d="M77.2 0L0 0L0 52.7Z" fill="#ba2264" stroke="#ba2264"></path><path d="M0 522.3L0 600L67.2 541.3Z" fill="#c4256a" stroke="#c4256a"></path><path d="M900 65.7L900 0L817.8 0Z" fill="#d42973" stroke="#d42973"></path><path d="M830.8 600L900 600L900 544.3Z" fill="#bf2367" stroke="#bf2367"></path></g></svg>